{"asset":{"version":"2.0","generator":"Unity 6000.4.6f1 glTFast 6.14.1"},"nodes":[{"name":"Taman","mesh":0,"scale":[10,1,10]},{"name":"Atap","mesh":3,"translation":[0,0.25,0],"scale":[0.7,0.3,1]},{"name":"Rodakiridepan","mesh":3,"translation":[-0.4,-0.2,0.5],"scale":[0.2,0.1,0.2]},{"name":"RodaKananDepan","mesh":3,"translation":[0.4,-0.2,0.5],"scale":[0.2,0.1,0.2]},{"name":"RodaKananBelakang","mesh":3,"translation":[0.4,-0.2,-0.5],"scale":[0.2,0.1,0.2]},{"name":"RodaKiriBelakang","mesh":3,"translation":[-0.4,-0.2,-0.5],"scale":[0.2,0.1,0.2]},{"name":"Mobil","children":[1,2,3,4,5],"mesh":4,"translation":[-2.5,0.65,0],"scale":[0.8,0.3,1.2]},{"name":"Main Camera","children":[35],"translation":[0,1,-10],"rotation":[0.0681714639,-0.893162251,0.144880161,0.420266],"scale":[1.00000012,0.99999994,1.00000012]},{"name":"Daun","mesh":1,"translation":[0,0.8,0],"scale":[0.7,0.6,0.7]},{"name":"Pohon1_Batang","children":[8],"mesh":2,"translation":[-2,0.4,2],"scale":[0.3,0.8,0.3]},{"name":"Daun","mesh":1,"translation":[0,0.8,0],"scale":[0.7,0.6,0.7]},{"name":"Pohon5_Batang","children":[10],"mesh":2,"translation":[2,0.4,2],"scale":[0.3,0.8,0.3]},{"name":"Daun","mesh":1,"translation":[0,0.8,0],"scale":[0.7,0.6,0.7]},{"name":"Pohon2_Batang","children":[12],"mesh":2,"translation":[0.2,0.4,2],"scale":[0.3,0.8,0.3]},{"name":"Daun","mesh":1,"translation":[0,0.8,0],"scale":[0.7,0.6,0.7]},{"name":"Pohon4_Batang","children":[14],"mesh":2,"translation":[-0.2,0.4,-2],"scale":[0.3,0.8,0.3]},{"name":"Daun","mesh":1,"translation":[0,0.8,0],"scale":[0.7,0.6,0.7]},{"name":"Pohon6_Batang","children":[16],"mesh":2,"translation":[2,0.4,-2],"scale":[0.3,0.8,0.3]},{"name":"Daun","mesh":1,"translation":[0,0.8,0],"scale":[0.7,0.6,0.7]},{"name":"Pohon3_Batang","children":[18],"mesh":2,"translation":[-2,0.4,-2],"scale":[0.3,0.8,0.3]},{"name":"TiangAyunanKiri","mesh":3,"translation":[1,1.25,0],"scale":[0.2,0.5,0.2]},{"name":"TiangAyunanKanan","mesh":3,"translation":[-1,1.25,0],"scale":[0.2,0.5,0.2]},{"name":"PalangAyunan","mesh":3,"translation":[0,2,0],"scale":[2.2,0.1,0.1]},{"name":"KursiAyunan","mesh":3,"translation":[0,0.8,0],"scale":[1.2,0.1,0.6]},{"name":"TaliKiri","mesh":5,"translation":[1,1.1,0],"scale":[0.2,1.2,0.2]},{"name":"TaliKanan","mesh":5,"translation":[-1,1.1,0],"scale":[0.2,1.2,0.2]},{"name":"Pagarkanan","mesh":3,"translation":[-5,0.7,0],"scale":[0.2,0.2,10]},{"name":"Pagarkiri","mesh":3,"translation":[5,0.7,0],"scale":[0.2,0.2,10]},{"name":"Pagardepan","mesh":3,"translation":[0,0.7,5],"scale":[10,0.2,0.2]},{"name":"Pagarbelakang","mesh":3,"translation":[0,0.7,-5],"scale":[10,0.2,0.2]},{"name":"trotoarkiri","mesh":6,"translation":[2.3,0.52,0],"scale":[0.3,0.05,4.5]},{"name":"trotoarkanan","mesh":6,"translation":[-2.3,0.52,0],"scale":[0.3,0.05,4.5]},{"name":"trotoardepan","mesh":6,"translation":[0,0.52,2.3],"scale":[5,0.05,0.3]},{"name":"trotoarbelakang","mesh":6,"translation":[0,0.52,-2.3],"scale":[5,0.05,0.3]},{"name":"GarisMaker","translation":[-4.17591,0,0.82103]},{"name":"Main Camera_Orientation","rotation":[0,-1,0,-4.371139E-08],"camera":0}],"extensionsRequired":["KHR_materials_unlit"],"extensionsUsed":["KHR_materials_unlit"],"buffers":[{"uri":"Mobil.bin","byteLength":40272}],"bufferViews":[{"buffer":0,"byteLength":72,"target":34963},{"buffer":0,"byteLength":4608,"byteOffset":72,"target":34963},{"buffer":0,"byteLength":480,"byteOffset":4680,"target":34963},{"buffer":0,"byteLength":1344,"byteOffset":5160,"byteStride":56,"target":34962},{"buffer":0,"byteLength":28840,"byteOffset":6504,"byteStride":56,"target":34962},{"buffer":0,"byteLength":4928,"byteOffset":35344,"byteStride":56,"target":34962}],"accessors":[{"bufferView":3,"componentType":5126,"count":24,"type":"VEC3","max":[0.5,0.5,0.5],"min":[-0.5,-0.5,-0.5]},{"bufferView":3,"componentType":5126,"count":24,"type":"VEC3","byteOffset":12},{"bufferView":3,"componentType":5126,"count":24,"type":"VEC4","byteOffset":24},{"bufferView":3,"componentType":5126,"count":24,"type":"VEC2","byteOffset":40},{"bufferView":3,"componentType":5126,"count":24,"type":"VEC2","byteOffset":48},{"bufferView":0,"componentType":5123,"count":36,"type":"SCALAR"},{"bufferView":4,"componentType":5126,"count":515,"type":"VEC3","max":[0.5,0.5,0.5],"min":[-0.5,-0.5,-0.5]},{"bufferView":4,"componentType":5126,"count":515,"type":"VEC3","byteOffset":12},{"bufferView":4,"componentType":5126,"count":515,"type":"VEC4","byteOffset":24},{"bufferView":4,"componentType":5126,"count":515,"type":"VEC2","byteOffset":40},{"bufferView":4,"componentType":5126,"count":515,"type":"VEC2","byteOffset":48},{"bufferView":1,"componentType":5123,"count":2304,"type":"SCALAR"},{"bufferView":5,"componentType":5126,"count":88,"type":"VEC3","max":[0.5,1,0.5],"min":[-0.5000001,-1,-0.500000238]},{"bufferView":5,"componentType":5126,"count":88,"type":"VEC3","byteOffset":12},{"bufferView":5,"componentType":5126,"count":88,"type":"VEC4","byteOffset":24},{"bufferView":5,"componentType":5126,"count":88,"type":"VEC2","byteOffset":40},{"bufferView":5,"componentType":5126,"count":88,"type":"VEC2","byteOffset":48},{"bufferView":2,"componentType":5123,"count":240,"type":"SCALAR"}],"cameras":[{"type":"perspective","perspective":{"yfov":1.04719758,"zfar":1000,"znear":0.3}}],"materials":[{"name":"aspal","pbrMetallicRoughness":{"baseColorFactor":[0.447988421,0.447988421,0.447988421,1],"metallicFactor":0},"extensions":{"KHR_materials_unlit":{}}},{"name":"Lit","pbrMetallicRoughness":{"baseColorFactor":[0.214041144,0.214041144,0.214041144,1],"metallicFactor":0,"roughnessFactor":0.5}},{"name":"Merah","pbrMetallicRoughness":{"baseColorFactor":[1,0,0,1],"metallicFactor":0},"extensions":{"KHR_materials_unlit":{}}},{"name":"Hijau","pbrMetallicRoughness":{"baseColorFactor":[0,1,0,1],"metallicFactor":0},"extensions":{"KHR_materials_unlit":{}}},{"name":"Coklat","pbrMetallicRoughness":{"baseColorFactor":[0.479320139,0.238397658,0.00334653375,1],"metallicFactor":0,"roughnessFactor":0.5}},{"name":"Kuning","pbrMetallicRoughness":{"baseColorFactor":[1,0.830769956,0.001214108,1],"metallicFactor":0},"extensions":{"KHR_materials_unlit":{}}},{"name":"Trotoar","pbrMetallicRoughness":{"baseColorFactor":[0.212230787,1,0.7662677,1],"metallicFactor":0,"roughnessFactor":0.5}}],"meshes":[{"name":"Cube","primitives":[{"attributes":{"POSITION":0,"NORMAL":1,"TANGENT":2,"TEXCOORD_0":3,"TEXCOORD_1":4},"indices":5,"material":0}]},{"name":"Sphere","primitives":[{"attributes":{"POSITION":6,"NORMAL":7,"TANGENT":8,"TEXCOORD_0":9,"TEXCOORD_1":10},"indices":11,"material":3}]},{"name":"Cylinder","primitives":[{"attributes":{"POSITION":12,"NORMAL":13,"TANGENT":14,"TEXCOORD_0":15,"TEXCOORD_1":16},"indices":17,"material":4}]},{"name":"Cube","primitives":[{"attributes":{"POSITION":0,"NORMAL":1,"TANGENT":2,"TEXCOORD_0":3,"TEXCOORD_1":4},"indices":5,"material":1}]},{"name":"Cube","primitives":[{"attributes":{"POSITION":0,"NORMAL":1,"TANGENT":2,"TEXCOORD_0":3,"TEXCOORD_1":4},"indices":5,"material":2}]},{"name":"Cylinder","primitives":[{"attributes":{"POSITION":12,"NORMAL":13,"TANGENT":14,"TEXCOORD_0":15,"TEXCOORD_1":16},"indices":17,"material":5}]},{"name":"Cube","primitives":[{"attributes":{"POSITION":0,"NORMAL":1,"TANGENT":2,"TEXCOORD_0":3,"TEXCOORD_1":4},"indices":5,"material":6}]}],"scene":0,"scenes":[{"name":"Mobil","nodes":[0,6,7,9,11,13,15,17,19,20,21,22,23,24,25,26,27,28,29,30,31,32,33,34]}]}